<svg width="99" height="28" viewBox="0 0 99 28" fill="none" xmlns="http://www.w3.org/2000/svg">
<mask id="mask0_30_1006" style="mask-type:luminance" maskUnits="userSpaceOnUse" x="0" y="0" width="99" height="27">
<path d="M0 0H99V26.7722H0V0Z" fill="white"/>
</mask>
<g mask="url(#mask0_30_1006)">
<path d="M31.1651 2.30676L47.6496 17.6798H94.8468L98.9632 22.2383L94.8468 26.7967H90.1766L88.8707 24.3604H85.8231L84.5166 26.7967H81.5881L80.2821 24.3604H77.2742L75.9677 26.7967H73.059L71.7526 24.3604H68.7054L67.399 26.7967H47.6694L28.7903 9.19046L9.81251 26.7967H0.0365601L10.2283 17.2921V8.08313H17.0554V10.9253C20.954 7.28953 24.8719 3.6353 28.7705 0L31.1651 2.30676ZM49.5098 19.4147L50.1628 20.0236H94.5302V19.4147H49.5098Z" fill="#E5E2D5"/>
</g>
<mask id="mask1_30_1006" style="mask-type:luminance" maskUnits="userSpaceOnUse" x="26" y="19" width="10" height="9">
<path d="M26.7568 19.8632H35.2952V28H26.7568V19.8632Z" fill="white"/>
</mask>
<g mask="url(#mask1_30_1006)">
<path d="M26.858 19.9017H30.4537V23.4319H26.858V19.9017ZM31.6456 19.9017H35.2412V23.4319H31.6456V19.9017ZM35.2412 24.476V28.0062H31.6456V24.476H35.2412ZM30.4537 28.0252H26.858V24.495H30.4537V28.0252Z" fill="#E5E2D5"/>
</g>
</svg>
